PathFileType	4	(X/Y/Z)	SUBJ63_2_walk_RCNL2025.trc
DataRate	CameraRate	NumFrames	NumMarkers	Units	OrigDataRate	OrigDataStartFrame	OrigNumFrames
100	100	11	25	mm	100	102	270
Frame#	Time	R_Shoulder			L_Shoulder			C7			J_Notch			R_Elbow			L_Elbow			R_Wrist			L_Wrist			R_Asis			L_Asis			Sacral			Thoracic			Sternum			R_Thigh_Lateral			R_Knee_Lateral			R_Shank_Lateral			R_Ankle_Lateral			R_Heel			R_Toe			L_Thigh_Lateral			L_Knee_Lateral			L_Shank_Lateral			L_Ankle_Lateral			L_Heel			L_Toe		
		X1	Y1	Z1	X2	Y2	Z2	X3	Y3	Z3	X4	Y4	Z4	X5	Y5	Z5	X6	Y6	Z6	X7	Y7	Z7	X8	Y8	Z8	X9	Y9	Z9	X10	Y10	Z10	X11	Y11	Z11	X12	Y12	Z12	X13	Y13	Z13	X14	Y14	Z14	X15	Y15	Z15	X16	Y16	Z16	X17	Y17	Z17	X18	Y18	Z18	X19	Y19	Z19	X20	Y20	Z20	X21	Y21	Z21	X22	Y22	Z22	X23	Y23	Z23	X24	Y24	Z24	X25	Y25	Z25
102	1.01000000	-44.074196	1265.683105	124.071022	-69.022430	1253.377686	-210.888428	-128.310471	1324.727051	-47.536331	-14.890771	1212.224976	-46.343067	-63.055729	1001.013428	256.979889	-206.911346	981.380188	-288.991760	41.607094	801.849701	305.686157	-231.227264	778.229553	-374.700394	-18.305902	811.858826	102.395546	24.673943	818.311218	-147.640366	-218.548584	820.708374	-66.564507	-213.339935	1143.193848	-26.516443	32.482555	1034.809570	-35.195877	-188.782761	493.162598	147.030930	-204.582428	438.043671	99.624924	-329.282074	302.681458	131.394455	-454.114014	140.018906	42.325035	-479.729828	171.658310	-10.247960	-379.186462	49.761894	32.401932	100.379791	469.113098	-231.850296	97.856079	442.670319	-164.641296	126.784805	254.817490	-198.470413	132.097061	58.232269	-127.644928	80.005966	46.393864	-78.162842	247.749542	53.261356	-115.700272
103	1.02000000	-28.282522	1266.311157	123.399292	-51.646000	1253.569458	-211.625992	-111.884117	1324.955200	-48.639854	1.670557	1212.813477	-46.932297	-49.042606	1001.682434	256.508331	-187.722214	980.871399	-289.854004	53.948172	801.780853	306.023834	-212.066071	777.610962	-375.151993	-1.639503	810.885193	101.021866	41.558525	819.041748	-148.655853	-201.975510	819.905884	-66.357872	-196.824310	1143.401123	-27.686972	49.392906	1035.631714	-35.610859	-165.266937	490.454865	149.655869	-180.029007	435.046967	102.870407	-308.507324	305.015900	135.286514	-441.152496	149.844559	46.049850	-464.397614	183.878265	-6.271405	-373.451721	53.308849	34.096519	118.115067	470.271942	-231.746902	114.117661	443.298157	-164.551743	139.032425	254.245514	-197.731506	134.352142	57.686779	-127.247513	80.659386	48.298286	-78.621574	249.715134	48.795380	-114.797234
104	1.03000000	-12.468075	1267.111694	122.771309	-34.195976	1254.008057	-212.217133	-95.486542	1325.445801	-49.605976	18.194220	1213.595215	-47.410801	-35.162830	1002.515747	255.987366	-168.185272	980.499390	-290.689850	65.924812	801.737701	306.194595	-191.720833	776.993134	-375.567612	14.717164	810.075989	99.635818	58.231575	819.927490	-149.712418	-185.647461	819.349121	-66.111504	-180.437027	1143.941650	-28.785513	66.129021	1036.580322	-36.018543	-140.272812	487.480469	152.254807	-153.921616	431.808289	106.018692	-285.451965	307.022400	139.101929	-425.985077	160.103012	49.710739	-446.888214	196.264938	-2.378206	-365.518921	58.100857	36.368526	133.857193	470.742218	-231.769501	128.747070	443.570007	-164.545334	150.178482	253.472839	-196.950409	136.169312	57.417099	-126.759140	81.262367	49.882339	-78.895920	251.133194	45.510662	-113.916275
105	1.04000000	3.311293	1268.053467	122.231918	-16.702776	1254.663696	-212.635376	-79.149231	1326.197021	-50.417900	34.649204	1214.542114	-47.747887	-21.433441	1003.461121	255.434769	-148.358704	980.246216	-291.492310	77.597153	801.716553	306.211685	-170.244835	776.356873	-375.925369	30.722155	809.490540	98.319000	74.683586	820.984924	-150.724976	-169.583725	819.140686	-65.900795	-164.202057	1144.819092	-29.797564	82.636337	1037.598877	-36.342926	-113.965912	484.436707	154.751862	-126.435265	428.533813	108.991180	-260.243408	308.708496	142.703918	-408.433655	170.400543	53.202755	-427.203918	208.301941	1.279645	-354.761810	63.965134	39.287041	147.520035	470.543945	-231.887131	141.668472	443.465790	-164.591705	159.899460	252.514374	-196.156311	137.600586	57.325394	-126.198677	81.803123	51.084099	-78.973984	252.110428	43.267570	-113.072372
106	1.05000000	18.994974	1269.125488	121.832268	0.807251	1255.516724	-212.859497	-62.887451	1327.219604	-51.066406	51.003586	1215.650879	-47.913643	-7.882747	1004.476318	254.861542	-128.287399	980.107666	-292.256775	89.013607	801.723999	306.086563	-147.703880	775.700256	-376.185776	46.364063	809.211975	97.155838	90.912872	822.226562	-151.607224	-153.796783	819.392944	-65.805069	-148.131760	1146.036621	-30.723011	98.876068	1038.661133	-36.508907	-86.612534	481.600372	157.062363	-97.814842	425.513519	111.713692	-233.131546	310.119537	145.975204	-388.386658	180.261688	56.439350	-405.384857	219.400635	4.546726	-340.607025	70.535248	42.857201	159.182358	469.795654	-232.070801	152.933243	443.041260	-164.662018	168.034027	251.461746	-195.413208	138.683975	57.329281	-125.611900	82.254990	51.909534	-78.880386	252.740570	41.869785	-112.300667
107	1.06000000	34.528400	1270.335815	121.618546	18.310154	1256.564331	-212.875595	-46.706142	1328.531006	-51.545437	67.224396	1216.938599	-47.881851	5.457941	1005.537842	254.270569	-108.004539	980.099365	-292.975708	100.207451	801.778564	305.827972	-124.172070	775.045471	-376.291779	61.657013	809.339478	96.228539	106.919563	823.658081	-152.276596	-138.290207	820.201843	-65.895988	-132.230759	1147.590698	-31.571575	114.826797	1039.772827	-36.451908	-58.561813	479.281006	159.103638	-68.356651	423.080811	114.119987	-204.454819	311.319519	148.835922	-365.821075	189.190781	59.362076	-381.517181	228.989578	7.303014	-322.627197	77.322235	47.007683	169.152206	468.690552	-232.268295	162.706268	442.403259	-164.722137	174.600052	250.413254	-194.782913	139.457764	57.370903	-125.049507	82.607056	52.423531	-78.673714	253.110168	41.102898	-111.631424
108	1.07000000	49.864788	1271.705444	121.624016	35.782318	1257.820068	-212.677979	-30.610207	1330.143799	-51.849369	83.282387	1218.431152	-47.634426	18.563330	1006.644043	253.658768	-87.533813	980.253601	-293.637329	111.200233	801.908020	305.441727	-99.727116	774.439453	-376.173157	76.634193	809.971130	95.608818	122.702774	825.273132	-152.663910	-123.055130	821.621521	-66.226120	-116.497269	1149.468872	-32.355923	130.483322	1040.963867	-36.124504	-30.204361	477.757812	160.811584	-38.379902	421.548401	116.166428	-174.594696	312.414093	151.253250	-340.797760	196.726776	61.942738	-355.732208	236.596405	9.499794	-300.604248	83.800392	51.584133	177.923462	467.465546	-232.400406	171.221909	441.673523	-164.733948	179.753525	249.428406	-194.299149	139.970703	57.417099	-124.546921	82.867676	52.717831	-78.418777	253.297485	40.765659	-111.078674
109	1.08000000	64.963326	1273.258789	121.864998	53.198910	1259.308350	-212.268280	-14.612718	1332.055542	-51.973186	99.157516	1220.150757	-47.164513	31.420841	1007.808777	253.021408	-66.891556	980.610718	-294.228516	122.009686	802.143799	304.931900	-74.446133	773.947937	-375.754807	91.339981	811.182251	95.347580	138.261078	827.049683	-152.725906	-108.065384	823.646057	-66.818039	-100.922379	1151.646362	-33.084892	145.854248	1042.277710	-35.499989	-1.917793	477.224762	162.157181	-8.197512	421.143005	117.845512	-143.923492	313.562012	153.241013	-313.448608	202.486511	64.181389	-328.198059	241.896927	11.172389	-274.548431	89.487877	56.363026	186.013916	466.341278	-232.386948	178.726486	440.954559	-164.665222	183.732330	248.531250	-193.959793	140.283066	57.454758	-124.118469	83.056267	52.877163	-78.157921	253.369644	40.690170	-110.641136
110	1.09000000	79.788666	1275.012451	122.340500	70.533524	1261.054321	-211.654434	1.264334	1334.243530	-51.916031	114.840057	1222.106689	-46.476475	44.033180	1009.050720	252.356201	-46.088806	981.207458	-294.738068	132.657646	802.513672	304.304428	-48.401375	773.644928	-374.967972	105.820107	813.006348	95.463326	153.595291	828.950073	-152.454147	-93.274536	826.206604	-67.658394	-85.491432	1154.081055	-33.760593	160.960770	1043.759766	-34.574867	25.984148	477.763245	163.152771	21.906208	421.966064	119.186508	-112.760643	314.931000	154.848587	-283.960480	206.196930	66.100449	-299.105682	244.723846	12.421407	-244.670456	94.008713	61.091167	193.773849	465.446869	-232.182434	185.426819	440.308807	-164.499054	186.799179	247.733276	-193.736832	140.459412	57.483871	-123.762924	83.196259	52.967548	-77.908852	253.382126	40.750809	-110.306198
111	1.10000000	94.312340	1276.966919	123.035545	87.759544	1263.073364	-210.850449	16.995768	1336.664185	-51.685425	130.328110	1224.289917	-45.582939	56.416107	1010.381348	251.665344	-25.134178	982.066223	-295.158630	143.173767	803.033783	303.571854	-21.657055	773.600250	-373.760773	120.115395	815.425598	95.933334	168.711487	830.924622	-151.875549	-78.620750	829.184998	-68.700859	-70.187988	1156.709961	-34.383060	175.835220	1045.448364	-33.368431	53.277218	479.347229	163.844833	51.685799	423.992920	120.244125	-81.358932	316.631866	156.141708	-252.548279	207.708893	67.735352	-268.646881	245.045944	13.377948	-211.321533	97.124306	65.536346	201.280075	464.782440	-231.796738	191.462296	439.757141	-164.236084	189.192474	247.044022	-193.594650	140.558945	57.510452	-123.469597	83.309624	53.038166	-77.676109	253.379578	40.863811	-110.054169
112	1.11000000	108.513336	1279.101318	123.925713	104.852608	1265.363403	-209.876434	32.560116	1339.255493	-51.298737	145.625366	1226.672729	-44.501358	68.594193	1011.795593	250.956039	-4.037563	983.188416	-295.486877	153.594444	803.702362	302.756760	5.729632	773.867767	-372.105118	134.262756	818.374268	96.693703	183.623077	832.915161	-151.046295	-64.040283	832.437683	-69.874321	-54.997284	1159.451660	-34.960449	190.518387	1047.369751	-31.917456	79.821312	481.868073	164.300461	80.934746	427.097504	121.082321	-49.925510	318.681549	157.186432	-219.422165	206.990585	69.126770	-236.987427	242.934799	14.171127	-174.927002	98.735237	69.530525	208.374741	464.254639	-231.288574	196.908203	439.291992	-163.890289	191.099487	246.470413	-193.502014	140.628143	57.541615	-123.222710	83.412392	53.125286	-77.461151	253.394775	40.980312	-109.863640
